<svg width="36" height="36" viewBox="0 0 36 36" fill="none" xmlns="http://www.w3.org/2000/svg">
<g clip-path="url(#clip0_11778_1020)">
<path d="M35.3796 29.793H0.621174C0.278402 29.793 0.000457764 29.515 0.000457764 29.1722V6.8275C0.000457764 6.48473 0.278402 6.20679 0.621174 6.20679H35.3797C35.7224 6.20679 36.0004 6.48473 36.0004 6.8275V29.1722C36.0003 29.515 35.7224 29.793 35.3796 29.793Z" fill="#41479B"/>
<path d="M36.0003 6.8275C36.0003 6.48473 35.7224 6.20679 35.3796 6.20679H32.6026L21.1038 13.7405V6.20679H14.8969V13.7405L3.39808 6.20679H0.621174C0.278402 6.20679 0.000457764 6.48473 0.000457764 6.8275V8.4328L9.8659 14.8964H0.000457764V21.1033H9.8659L0.000457764 27.5669V29.1722C0.000457764 29.515 0.278402 29.793 0.621174 29.793H3.39816L14.897 22.2592V29.793H21.1039V22.2592L32.6028 29.793H35.3797C35.7225 29.793 36.0005 29.515 36.0005 29.1722V27.5669L26.135 21.1033H36.0003V14.8965H26.1349L36.0003 8.4328V6.8275Z" fill="#F5F5F5"/>
<path d="M36.0003 16.1378H19.8625V6.20679H16.1383V16.1378H0.000457764V19.8619H16.1383V29.793H19.8625V19.8619H36.0003V16.1378Z" fill="#FF4B55"/>
<path d="M12.5829 21.1033L0.0182495 29.2593C0.0621947 29.559 0.309342 29.7929 0.621317 29.7929H1.47624L14.863 21.1033H12.5829V21.1033Z" fill="#FF4B55"/>
<path d="M24.3562 21.1033H22.0761L35.4434 29.7801C35.7549 29.7469 36.0008 29.4925 36.0008 29.1722V28.6618L24.3562 21.1033Z" fill="#FF4B55"/>
<path d="M0.000915527 7.5127L11.376 14.8965H13.656L0.362531 6.26733C0.150188 6.36598 0.000915527 6.57797 0.000915527 6.82751V7.5127Z" fill="#FF4B55"/>
<path d="M23.3845 14.8966L35.9793 6.72094C35.927 6.43112 35.6851 6.20703 35.3801 6.20703H34.4909L21.1044 14.8966H23.3845Z" fill="#FF4B55"/>
</g>
<defs>
<clipPath id="clip0_11778_1020">
<rect width="36" height="36" fill="white"/>
</clipPath>
</defs>
</svg>
