<svg width="36" height="36" viewBox="0 0 36 36" fill="none" xmlns="http://www.w3.org/2000/svg">
<g clip-path="url(#clip0_11170_25663)">
<path d="M35.3796 29.793H0.621114C0.278342 29.793 0.000396729 29.5151 0.000396729 29.1723V6.8275C0.000396729 6.48473 0.278342 6.20679 0.621114 6.20679H35.3797C35.7225 6.20679 36.0004 6.48473 36.0004 6.8275V29.1723C36.0003 29.5151 35.7224 29.793 35.3796 29.793Z" fill="#FF4B55"/>
<path d="M18.2899 10.9665L19.9499 15.9439L25.1967 15.9846C25.49 15.9868 25.6117 16.3613 25.3757 16.5356L21.1549 19.6524L22.7376 24.6549C22.8261 24.9347 22.5076 25.1661 22.2689 24.9955L18.0003 21.9444L13.7316 24.9955C13.493 25.1661 13.1745 24.9347 13.2629 24.6549L14.8456 19.6524L10.6248 16.5356C10.3888 16.3613 10.5105 15.9868 10.8038 15.9846L16.0506 15.9439L17.7106 10.9665C17.8035 10.6882 18.1971 10.6882 18.2899 10.9665Z" fill="#FFE15A"/>
</g>
<defs>
<clipPath id="clip0_11170_25663">
<rect width="36" height="36" fill="white"/>
</clipPath>
</defs>
</svg>
