<svg width="94" height="32" viewBox="0 0 94 32" fill="none" xmlns="http://www.w3.org/2000/svg">
<path d="M22.9938 11.1276H12.0804V14.455H19.8203C19.4381 19.1213 15.6598 21.111 12.0935 21.111C7.53112 21.111 3.54951 17.4224 3.54951 12.2522C3.54951 7.21572 7.34496 3.33674 12.1037 3.33674C15.7753 3.33674 17.9384 5.7418 17.9384 5.7418L20.2061 3.3293C20.2061 3.3293 17.2957 0 11.9879 0C5.22879 0 0 5.86156 0 12.1927C0 18.3969 4.91838 24.446 12.1602 24.446C18.529 24.446 23.1913 19.9628 23.1913 13.3338C23.1913 11.935 22.9934 11.1268 22.9934 11.1268L22.9938 11.1276Z" fill="black"/>
<path d="M31.8705 8.45825C27.3852 8.45825 24.1709 12.1152 24.1709 16.3799C24.1709 20.7077 27.2888 24.4323 31.923 24.4323C36.1182 24.4323 39.5555 21.0883 39.5555 16.4727C39.5555 11.1828 35.5573 8.45825 31.8705 8.45825ZM31.915 11.5956C34.1206 11.5956 36.2106 13.4551 36.2106 16.4518C36.2106 19.3849 34.1294 21.2972 31.9048 21.2972C29.4605 21.2972 27.5322 19.2559 27.5322 16.4285C27.5322 13.6618 29.4368 11.5956 31.915 11.5956Z" fill="black"/>
<path d="M48.5366 8.45825C44.0517 8.45825 40.8374 12.1152 40.8374 16.3799C40.8374 20.7077 43.955 24.4323 48.5895 24.4323C52.7848 24.4323 56.2217 21.0883 56.2217 16.4727C56.2217 11.1828 52.2239 8.45825 48.5366 8.45825ZM48.5815 11.5956C50.7868 11.5956 52.8771 13.4551 52.8771 16.4518C52.8771 19.3849 50.7959 21.2972 48.5713 21.2972C46.1271 21.2972 44.1988 19.2559 44.1988 16.4285C44.1988 13.6618 46.103 11.5956 48.5815 11.5956Z" fill="black"/>
<path d="M64.8839 8.4668C60.7663 8.4668 57.5298 12.174 57.5298 16.3349C57.5298 21.0743 61.282 24.2172 64.8131 24.2172C66.9962 24.2172 68.1573 23.3265 69.0144 22.3037V23.8567C69.0144 26.573 67.4098 28.1998 64.9876 28.1998C62.6476 28.1998 61.474 26.4117 61.066 25.3968L58.1218 26.6619C59.1665 28.9319 61.2689 31.2994 65.0117 31.2994C69.106 31.2994 72.2261 28.6486 72.2261 23.0894V8.94028H69.0144V10.2741C68.0267 9.18033 66.6761 8.46711 64.8839 8.46711V8.4668ZM65.1822 11.5534C67.201 11.5534 69.2739 13.3255 69.2739 16.3514C69.2739 19.4272 67.2054 21.1223 65.1373 21.1223C62.9421 21.1223 60.8995 19.2899 60.8995 16.3807C60.8995 13.3578 63.021 11.5534 65.1822 11.5534Z" fill="black"/>
<path d="M86.4014 8.448C82.5165 8.448 79.2544 11.6702 79.2544 16.424C79.2544 21.4549 82.8903 24.4385 86.7749 24.4385C90.0165 24.4385 92.0063 22.5898 93.1935 20.9332L90.5448 19.0963C89.8577 20.2082 88.7084 21.2947 86.7909 21.2947C84.637 21.2947 83.6464 20.0651 83.0327 18.8744L93.3067 14.4307L92.7733 13.1285C91.781 10.5783 89.4656 8.44879 86.4018 8.44879L86.4014 8.448ZM86.5354 11.5198C87.9351 11.5198 88.9428 12.2954 89.3707 13.2259L82.5095 16.2151C82.2138 13.9006 84.3171 11.5198 86.5354 11.5198Z" fill="black"/>
<path d="M74.3813 23.9858H77.8109V0.788574H74.3813V23.9858Z" fill="black"/>
</svg>
