<svg width="74" height="20" viewBox="0 0 74 20" fill="none" xmlns="http://www.w3.org/2000/svg">
<path d="M0 0.962402H4.16898V16.1539H11.5196V19.7151H0V0.962402Z" fill="black"/>
<path d="M17.1608 2.35184C17.1608 3.51834 16.2764 4.46304 14.8214 4.46304C13.4519 4.46304 12.5674 3.51834 12.5674 2.35184C12.5674 1.15725 13.4806 0.240479 14.8786 0.240479C16.2764 0.240479 17.1324 1.15725 17.1608 2.35184ZM12.6816 19.7148V6.12989H17.0184V19.7148H12.6816Z" fill="black"/>
<path d="M19.1744 10.3248C19.1744 8.60491 19.1198 7.16696 19.0649 5.92588H22.6761L22.8679 7.84348H22.9501C23.497 6.94096 24.8375 5.61572 27.0806 5.61572C29.8167 5.61572 31.8687 7.50521 31.8687 11.5656V19.715H27.71V12.0732C27.71 10.2968 27.1083 9.0844 25.6037 9.0844C24.4544 9.0844 23.7706 9.90213 23.4695 10.6914C23.3602 10.9735 23.3331 11.3682 23.3331 11.7632V19.715H19.1744V10.3248Z" fill="black"/>
<path d="M38.1661 11.8568H38.2207C38.5214 11.2736 38.8493 10.7184 39.1771 10.2186L41.8818 6.13654H46.8819L42.1005 11.6346L47.5648 19.7152H42.4557L39.204 14.1336L38.1661 15.4665V19.7152H34.0127V0H38.1661V11.8568Z" fill="black"/>
<path d="M50.5218 14.1795C50.6313 15.954 52.3548 16.7993 54.2976 16.7993C55.7205 16.7993 56.8695 16.6019 57.9918 16.2076L58.5387 19.1092C57.1705 19.7008 55.5017 19.9825 53.6958 19.9825C49.1536 19.9825 46.5542 17.2783 46.5542 12.9681C46.5542 9.47515 48.6613 5.61572 53.3123 5.61572C57.6357 5.61572 59.2774 9.08089 59.2774 12.4893C59.2774 13.2215 59.1951 13.8694 59.1405 14.1795H50.5218ZM55.4193 11.2496C55.4193 10.2074 54.9817 8.46078 53.0664 8.46078C51.3152 8.46078 50.6036 10.1233 50.4943 11.2496H55.4193Z" fill="black"/>
<path d="M73.5548 0V15.6523C73.5548 17.1785 73.6095 18.7884 73.6641 19.704H69.9767L69.813 17.7336H69.7314C68.912 19.2321 67.2731 20.0097 65.5526 20.0097C62.3847 20.0097 59.8444 17.262 59.8444 13.0435C59.8174 8.46421 62.6306 5.80032 65.8256 5.80032C67.4916 5.80032 68.748 6.41068 69.3487 7.32647H69.4033V0H73.5548ZM69.4033 11.878C69.4033 11.6557 69.4033 11.3506 69.3487 11.1007C69.1031 9.99097 68.202 9.04722 66.9184 9.04722C65.0062 9.04722 64.0502 10.7679 64.0502 12.9049C64.0502 15.2079 65.1705 16.6511 66.8909 16.6511C68.0925 16.6511 69.0757 15.8188 69.3215 14.6256C69.3764 14.3202 69.4033 13.9874 69.4033 13.6541V11.878Z" fill="black"/>
</svg>
