<svg width="116" height="17" viewBox="0 0 116 17" fill="none" xmlns="http://www.w3.org/2000/svg">
<path fill-rule="evenodd" clip-rule="evenodd" d="M62.8233 7.88393C62.8233 7.88393 61.7486 7.18626 61.0827 6.91632C61.0827 6.91632 59.024 5.91538 58.6155 5.43916C58.6155 5.43916 57.8138 4.64584 58.2829 3.72527C58.2829 3.72527 58.4796 3.1224 59.3276 3.1224C59.3276 3.1224 60.4315 3.18606 60.4315 4.13778V5.48039H64.3875L64.38 3.50313C64.38 3.50313 64.6841 0.264281 59.7202 0.122426C59.7202 0.122426 55.8165 -0.146822 54.6968 2.05917C54.6968 2.05917 54.2573 2.55063 54.2573 4.26441V5.5028C54.2573 5.5028 54.2125 6.93229 54.9085 7.85208C54.9085 7.85208 55.3018 8.45504 56.2705 9.12158C56.2705 9.12158 58.2374 10.2333 59.4172 10.8687C59.4172 10.8687 60.6095 11.5824 60.4521 12.7172C60.4521 12.7172 60.3556 13.8832 59.2048 13.8354C59.2048 13.8354 58.1525 13.7855 58.1525 12.6427V11.3008H53.9372V13.2507C53.9372 13.2507 53.8185 16.9787 59.2365 16.9787C59.2365 16.9787 64.411 17.0894 64.6531 13.1522V11.5657C64.6531 11.5657 64.8354 9.1534 62.8233 7.88393Z" fill="black"/>
<path fill-rule="evenodd" clip-rule="evenodd" d="M41.8205 0.582764L40.4755 9.29442H40.1611L38.876 0.660791H32.1659L31.8301 16.4362H35.8029L35.8505 4.54993H36.1628L38.2688 16.4337H42.4483L44.5284 4.55442H44.805L44.9009 16.4362H48.8945L48.465 0.582764H41.8205Z" fill="black"/>
<path fill-rule="evenodd" clip-rule="evenodd" d="M17.7056 0.647949L15.0918 16.4186H19.3207L20.8688 4.19056H21.2168L22.7645 16.4186H26.993L24.3798 0.647949H17.7056Z" fill="black"/>
<path fill-rule="evenodd" clip-rule="evenodd" d="M109.717 7.66732V9.99349H110.795V12.4898C110.795 13.7093 109.803 13.7318 109.803 13.7318C108.596 13.7318 108.642 12.5723 108.642 12.5723V3.93776C108.642 3.04825 109.712 3.00054 109.712 3.00054C110.74 3.00054 110.747 4.06152 110.747 4.06152V5.37446H114.706C114.835 2.81233 114.349 2.19205 114.349 2.19205C113.367 -0.125492 109.653 0.0012315 109.653 0.0012315C103.945 0.0012315 104.577 4.60435 104.577 4.60435V12.953C104.7 17.2702 110.324 16.8324 110.42 16.8265C112.922 16.5356 113.678 15.7003 113.678 15.7003C114.373 15.1576 114.553 14.4063 114.553 14.4063C114.75 13.9684 114.801 12.5723 114.801 12.5723V7.66732H109.717Z" fill="black"/>
<path fill-rule="evenodd" clip-rule="evenodd" d="M95.919 10.2332H95.7455L91.6931 0.586444H86.8477V16.4389H90.7918L90.5554 6.79313H90.7312L94.9283 16.4389H99.6291V0.585449H95.6347L95.919 10.2332Z" fill="black"/>
<path fill-rule="evenodd" clip-rule="evenodd" d="M76.5942 12.486C76.5942 12.486 76.6515 13.7869 75.5017 13.7869C75.5017 13.7869 74.2917 13.8549 74.2917 12.5186L74.28 0.595703H69.9794V12.4237C69.9794 12.4237 69.5382 16.9004 75.5616 16.9004C75.5616 16.9004 80.7961 16.9656 80.7961 12.6286V0.59646H76.5942V12.486Z" fill="black"/>
<path fill-rule="evenodd" clip-rule="evenodd" d="M8.88505 7.88382C8.88505 7.88382 7.81084 7.18615 7.14501 6.91621C7.14501 6.91621 5.08695 5.91674 4.67924 5.43906C4.67924 5.43906 3.87682 4.64511 4.34676 3.7259C4.34676 3.7259 4.54257 3.12298 5.38984 3.12298C5.38984 3.12298 6.49442 3.186 6.49442 4.13767V5.48028H10.4519L10.4437 3.50229C10.4437 3.50229 10.7465 0.264155 5.78382 0.122321C5.78382 0.122321 5.40983 0.0969638 4.86142 0.125975C4.86142 0.125975 1.85532 0.295306 0.780375 2.02507C0.774853 2.03737 0.76595 2.04748 0.759768 2.05907C0.759768 2.05907 0.320863 2.54977 0.320863 4.26431V5.50266C0.320863 5.50266 0.275402 6.93141 0.972234 7.85202C0.972234 7.85202 1.36481 8.4549 2.3342 9.12148C2.3342 9.12148 4.29977 10.2325 5.48023 10.8679C5.48023 10.8679 6.67301 11.5815 6.51585 12.7171C6.51585 12.7171 6.4185 13.8831 5.26842 13.8353C5.26842 13.8353 4.21631 13.7854 4.21631 12.6426V11.3H0.000206103V13.2506C0.000206103 13.2506 -0.117877 16.9786 5.2988 16.9786C5.2988 16.9786 10.4732 17.0893 10.716 13.1521V11.5663C10.716 11.5663 10.8976 9.1533 8.88505 7.88382Z" fill="black"/>
</svg>
