<svg width="114" height="35" viewBox="0 0 114 35" fill="none" xmlns="http://www.w3.org/2000/svg">
<path d="M17.0654 0C7.64065 0 0 7.53259 0 16.8244C0 26.1172 7.64065 33.6495 17.0654 33.6495C26.4906 33.6495 34.1308 26.1172 34.1308 16.8244C34.1308 7.53327 26.491 0.000846892 17.0652 0.000846892L17.0654 0ZM24.8915 24.2656C24.585 24.7612 23.9301 24.9167 23.4289 24.6147C19.4215 22.1998 14.3775 21.6544 8.43722 22.9923C7.8648 23.1218 7.29421 22.7679 7.1638 22.2038C7.03276 21.6394 7.38998 21.0768 7.96384 20.9482C14.4645 19.4831 20.0406 20.1138 24.5388 22.8236C25.0401 23.1269 25.199 23.7717 24.8913 24.266L24.8915 24.2656ZM26.9803 19.6852C26.5943 20.3026 25.7755 20.4962 25.1501 20.1172C20.564 17.3378 13.5707 16.5327 8.14501 18.1564C7.44134 18.3659 6.69815 17.975 6.48459 17.2825C6.27265 16.5887 6.66942 15.8575 7.37185 15.6465C13.5695 13.7926 21.2741 14.6906 26.5419 17.8821C27.1676 18.2616 27.3652 19.0694 26.9801 19.6854L26.9803 19.6852H26.9803ZM27.1596 14.9148C21.6587 11.6941 12.585 11.3978 7.33373 12.9692C6.49049 13.2213 5.59873 12.7521 5.34318 11.9207C5.08764 11.0889 5.56327 10.2104 6.40713 9.95758C12.4353 8.15337 22.4563 8.50212 28.7886 12.2082C29.5471 12.6519 29.796 13.6178 29.3464 14.3645C28.8981 15.1122 27.9158 15.3588 27.1598 14.9148H27.1596ZM46.4294 15.532C43.4828 14.8392 42.9583 14.3531 42.9583 13.3315C42.9583 12.3663 43.88 11.7167 45.2506 11.7167C46.5793 11.7167 47.8968 12.2101 49.278 13.2255C49.3198 13.2561 49.3722 13.2684 49.4237 13.2603C49.4753 13.2527 49.5209 13.2247 49.5511 13.1829L50.9898 11.1833C51.0489 11.1009 51.0328 10.9874 50.9531 10.9246C49.3092 9.62416 47.4581 8.99187 45.2943 8.99187C42.1128 8.99187 39.8906 10.8741 39.8906 13.5675C39.8906 16.4554 41.8076 17.4781 45.1203 18.2674C47.9398 18.9076 48.4157 19.4441 48.4157 20.4031C48.4157 21.4656 47.4534 22.1262 45.9048 22.1262C44.1849 22.1262 42.7821 21.5551 41.2127 20.2151C41.1738 20.182 41.1204 20.167 41.0711 20.1698C41.0191 20.174 40.9716 20.1975 40.9386 20.2369L39.3255 22.1297C39.2578 22.2081 39.2664 22.3254 39.3447 22.3933C41.1705 24.0004 43.4162 24.8492 45.8396 24.8492C49.2679 24.8492 51.4832 23.0026 51.4832 20.1443C51.4893 17.7314 50.0241 16.3952 46.4355 15.5345L46.4294 15.532ZM59.2392 12.667C57.7532 12.667 56.5344 13.2441 55.5293 14.4264V13.0956C55.5293 12.9904 55.4429 12.905 55.3365 12.905H52.6981C52.5916 12.905 52.5053 12.9904 52.5053 13.0956V27.8827C52.5053 27.9879 52.5916 28.0734 52.6981 28.0734H55.3365C55.4429 28.0734 55.5293 27.9879 55.5293 27.8827V23.2151C56.5346 24.3274 57.7536 24.8708 59.2392 24.8708C62.0002 24.8708 64.7953 22.7753 64.7953 18.7697C64.7994 14.763 62.0035 12.6669 59.2422 12.6669L59.2392 12.667ZM61.7274 18.7697C61.7274 20.8094 60.4529 22.2328 58.628 22.2328C56.8239 22.2328 55.4631 20.7448 55.4631 18.7697C55.4631 16.7946 56.8239 15.3064 58.628 15.3064C60.4234 15.3062 61.7276 16.7624 61.7276 18.7693L61.7274 18.7697ZM71.9593 12.667C68.4035 12.667 65.6178 15.3664 65.6178 18.8131C65.6178 22.2224 68.3843 24.8935 71.9157 24.8935C75.4842 24.8935 78.2784 22.2031 78.2784 18.7697C78.2784 15.348 75.5029 12.6674 71.9591 12.6674L71.9593 12.667ZM71.9593 22.2532C70.068 22.2532 68.6422 20.7549 68.6422 18.7686C68.6422 16.7738 70.0187 15.3262 71.9157 15.3262C73.8192 15.3262 75.2547 16.8244 75.2547 18.8123C75.2547 20.8067 73.869 22.2532 71.9595 22.2532H71.9593ZM85.8716 12.905H82.9683V9.97842C82.9683 9.87374 82.8823 9.78804 82.7757 9.78804H80.1378C80.031 9.78804 79.9444 9.87374 79.9444 9.97842V12.905H78.6758C78.5696 12.905 78.4836 12.9904 78.4836 13.0956V15.331C78.4836 15.4359 78.5696 15.5217 78.6758 15.5217H79.9444V21.3061C79.9444 23.6436 81.1245 24.8288 83.4519 24.8288C84.3983 24.8288 85.1834 24.6361 85.9234 24.2225C85.9835 24.1894 86.0208 24.1254 86.0208 24.0575V21.9287C86.0208 21.8631 85.9861 21.801 85.9291 21.7665C85.8716 21.731 85.8001 21.7292 85.7412 21.7579C85.2329 22.01 84.7416 22.1264 84.1924 22.1264C83.3459 22.1264 82.9683 21.7475 82.9683 20.8982V15.5228H85.8716C85.9782 15.5228 86.064 15.4371 86.064 15.3321V13.0968C86.068 12.9917 85.9825 12.906 85.8744 12.906L85.8716 12.905ZM95.9874 12.9165V12.557C95.9874 11.4996 96.3986 11.028 97.3209 11.028C97.871 11.028 98.3128 11.1357 98.8075 11.2985C98.8685 11.3173 98.9321 11.308 98.9816 11.272C99.0325 11.2359 99.0613 11.1783 99.0613 11.1172V8.92548C99.0613 8.84163 99.0067 8.76745 98.9247 8.74263C98.402 8.58934 97.7332 8.43208 96.7318 8.43208C94.295 8.43208 93.0069 9.78507 93.0069 12.3432V12.8937H91.7393C91.633 12.8937 91.5457 12.9792 91.5457 13.0841V15.331C91.5457 15.4359 91.633 15.5217 91.7393 15.5217H93.0069V24.4439C93.0069 24.5489 93.0929 24.6345 93.1993 24.6345H95.8376C95.9442 24.6345 96.031 24.5489 96.031 24.4439V15.5223H98.4944L102.268 24.4422C101.839 25.3795 101.418 25.5659 100.843 25.5659C100.378 25.5659 99.8888 25.4291 99.3883 25.1591C99.3413 25.1335 99.2854 25.1292 99.2347 25.1448C99.1843 25.1623 99.142 25.1993 99.1206 25.2475L98.2264 27.1816C98.1838 27.2731 98.2203 27.3804 98.3095 27.4279C99.243 27.9262 100.086 28.1388 101.127 28.1388C103.075 28.1388 104.152 27.2443 105.101 24.8375L109.679 13.1768C109.702 13.118 109.695 13.0518 109.658 12.9997C109.622 12.9481 109.563 12.917 109.499 12.917H106.753C106.671 12.917 106.597 12.9685 106.57 13.0448L103.756 20.9682L100.675 13.0396C100.647 12.9657 100.574 12.917 100.494 12.917H95.9868L95.9874 12.9165ZM90.1225 12.905H87.4841C87.3775 12.905 87.2908 12.9904 87.2908 13.0956V24.4439C87.2908 24.5489 87.3775 24.6345 87.4841 24.6345H90.1225C90.2289 24.6345 90.3159 24.5489 90.3159 24.4439V13.0965C90.316 13.0458 90.2956 12.9972 90.2593 12.9613C90.223 12.9256 90.1736 12.9055 90.1223 12.9057L90.1225 12.905ZM88.8183 7.7378C87.7731 7.7378 86.9249 8.5719 86.9249 9.60248C86.9249 10.6336 87.7733 11.4687 88.8183 11.4687C89.8631 11.4687 90.7104 10.6336 90.7104 9.60248C90.7104 8.57207 89.8627 7.7378 88.8193 7.7378H88.8183ZM111.931 16.5535C110.887 16.5535 110.075 15.7269 110.075 14.723C110.075 13.719 110.898 12.8828 111.941 12.8828C112.985 12.8828 113.798 13.7093 113.798 14.7125C113.798 15.7164 112.975 16.5535 111.931 16.5535H111.931ZM111.942 13.0649C110.991 13.0649 110.271 13.8103 110.271 14.723C110.271 15.6352 110.985 16.3706 111.932 16.3706C112.883 16.3706 113.603 15.6257 113.603 14.7125C113.603 13.8002 112.888 13.0649 111.942 13.0649H111.942H111.942ZM112.353 14.9006L112.878 15.6256H112.436L111.963 14.9606H111.556V15.6256H111.186V13.7041H112.055C112.508 13.7041 112.805 13.9326 112.805 14.317C112.807 14.6321 112.622 14.8246 112.355 14.9008H112.353V14.9006ZM112.039 14.0339H111.556V14.6416H112.039C112.281 14.6416 112.425 14.5252 112.425 14.3374C112.425 14.1398 112.28 14.0339 112.04 14.0339H112.039Z" fill="black"/>
</svg>
