<svg width="26" height="24" viewBox="0 0 26 24" fill="none" xmlns="http://www.w3.org/2000/svg">
<path d="M12.0986 0.876263C12.4618 0.120307 13.5382 0.120306 13.9014 0.876262L16.8151 6.94134C16.9609 7.24478 17.2496 7.45451 17.5832 7.49938L24.2518 8.3963C25.083 8.50809 25.4156 9.53182 24.8089 10.1108L19.9411 14.7562C19.6975 14.9886 19.5873 15.3279 19.6477 15.6591L20.8554 22.2785C21.0059 23.1035 20.1351 23.7362 19.3969 23.3381L13.4747 20.144C13.1784 19.9842 12.8216 19.9842 12.5253 20.144L6.60308 23.3381C5.86493 23.7362 4.99409 23.1035 5.14462 22.2785L6.35232 15.6591C6.41274 15.3279 6.30248 14.9886 6.05894 14.7562L1.1911 10.1108C0.584368 9.53182 0.916998 8.50809 1.74818 8.3963L8.41681 7.49938C8.75044 7.45451 9.03911 7.24478 9.18489 6.94134L12.0986 0.876263Z" fill="white"/>
</svg>
