<svg width="78" height="33" viewBox="0 0 78 33" fill="none" xmlns="http://www.w3.org/2000/svg">
<path d="M5.4293 12.4033C5.4293 11.5792 6.11601 11.2623 7.25338 11.2623C8.88431 11.2623 10.9444 11.7483 12.5754 12.6146V7.64907C10.7942 6.95178 9.03453 6.67709 7.25338 6.67709C2.89706 6.67709 0 8.91687 0 12.6569C0 18.4888 8.15468 17.559 8.15468 20.0735C8.15468 21.0455 7.2963 21.3624 6.09455 21.3624C4.3134 21.3624 2.03867 20.644 0.236057 19.672V24.701C2.23181 25.5462 4.24902 25.9054 6.09455 25.9054C10.5582 25.9054 13.6269 23.729 13.6269 19.9467C13.6054 13.65 5.4293 14.7699 5.4293 12.4033ZM19.9361 2.45108L14.6999 3.54984L14.6784 20.475C14.6784 23.6022 17.0605 25.9054 20.2365 25.9054C21.9962 25.9054 23.2838 25.5885 23.9919 25.2081V20.9187C23.3052 21.1934 19.9146 22.1654 19.9146 19.0381V11.537H23.9919V7.0363H19.9146L19.9361 2.45108ZM30.6659 8.59992L30.3226 7.0363H25.6873V25.5251H31.0522V12.995C32.3183 11.368 34.4643 11.6638 35.1295 11.8962V7.0363C34.4428 6.78274 31.932 6.31788 30.6659 8.59992ZM36.4386 7.0363H41.8249V25.5251H36.4386V7.0363ZM36.4386 5.43041L41.8249 4.28939V0L36.4386 1.11989V5.43041ZM53.0269 6.67709C50.9239 6.67709 49.5719 7.64907 48.8208 8.32523L48.5418 7.01517H43.8207V31.6528L49.1856 30.5329L49.2071 24.5531C49.9796 25.1025 51.117 25.8843 53.0054 25.8843C56.8467 25.8843 60.3447 22.8415 60.3447 16.1433C60.3232 10.0156 56.7824 6.67709 53.0269 6.67709ZM51.7393 21.2357C50.4732 21.2357 49.7221 20.7919 49.2071 20.2426L49.1856 12.4033C49.7436 11.7906 50.5161 11.368 51.7393 11.368C53.6922 11.368 55.0441 13.5232 55.0441 16.2912C55.0441 19.1227 53.7136 21.2357 51.7393 21.2357ZM77.2549 16.3546C77.2549 10.9453 74.5939 6.67709 69.5079 6.67709C64.4005 6.67709 61.3103 10.9453 61.3103 16.3124C61.3103 22.6725 64.9585 25.8843 70.1947 25.8843C72.7484 25.8843 74.6797 25.3138 76.139 24.5108V20.2848C74.6797 21.0032 73.0059 21.447 70.8814 21.447C68.7998 21.447 66.9542 20.7285 66.7182 18.2352H77.212C77.212 17.9605 77.2549 16.8618 77.2549 16.3546ZM66.6538 14.3473C66.6538 11.9596 68.1345 10.9665 69.4865 10.9665C70.7955 10.9665 72.1904 11.9596 72.1904 14.3473H66.6538Z" fill="black"/>
</svg>
