<svg width="60" height="20" viewBox="0 0 60 20" fill="none" xmlns="http://www.w3.org/2000/svg">
<path d="M25.8171 19.5344H21.2295L24.0969 0.338135H28.6849L25.8171 19.5344Z" fill="black"/>
<path d="M16.673 0.338135L12.0936 13.5407L11.5522 10.6976L11.5527 10.6986L9.93608 2.06702C9.93608 2.06702 9.74116 0.338135 7.65772 0.338135H0.0883305L0 0.662656C0 0.662656 2.31538 1.16381 5.02356 2.85778L9.19637 19.5341H14.2007L21.8421 0.338135H16.673Z" fill="black"/>
<path d="M55.4034 19.5341H59.783L55.9645 0.338135H52.1299C50.3588 0.338135 49.9276 1.76869 49.9276 1.76869L42.8149 19.5341H47.786L48.7809 16.6832H54.8443L55.4034 19.5341ZM50.1549 12.7438L52.6616 5.56022L54.0715 12.7438H50.1549Z" fill="black"/>
<path d="M42.6817 4.95717L43.3578 0.836546C43.3578 0.836546 41.2702 0 39.094 0C36.7414 0 31.1552 1.08391 31.1552 6.35159C31.1552 11.3088 37.7117 11.3703 37.7117 13.9729C37.7117 16.5754 31.8308 16.1104 29.8903 14.4686L29.1851 18.7761C29.1851 18.7761 31.3014 19.86 34.5365 19.86C37.7711 19.86 42.652 18.094 42.652 13.2913C42.652 8.30284 36.0362 7.83838 36.0362 5.67003C36.0362 3.50066 40.6531 3.77933 42.6817 4.95717Z" fill="black"/>
</svg>
